<?xml version="1.0" standalone="no"?>
<!DOCTYPE svg PUBLIC "-//W3C//DTD SVG 20010904//EN"
 "http://www.w3.org/TR/2001/REC-SVG-20010904/DTD/svg10.dtd">
<svg version="1.0" xmlns="http://www.w3.org/2000/svg"
 width="512.000000pt" height="512.000000pt" viewBox="0 0 512.000000 512.000000"
 preserveAspectRatio="xMidYMid meet">
<metadata>
Created by potrace 1.11, written by Peter Selinger 2001-2013
</metadata>
<g transform="translate(0.000000,512.000000) scale(0.100000,-0.100000)"
fill="#000000" stroke="none">
<path d="M2600 5088 c-14 -6 -92 -34 -175 -63 -82 -29 -483 -171 -890 -315
-407 -144 -814 -288 -905 -320 -228 -80 -235 -83 -258 -127 -17 -31 3 -78 41
-102 18 -10 253 -110 522 -221 270 -111 621 -256 780 -322 160 -66 349 -144
420 -173 72 -30 202 -84 290 -121 144 -61 167 -67 230 -68 71 -1 131 20 535
191 19 8 44 19 55 23 11 4 38 16 60 26 22 9 65 27 95 39 30 12 276 113 545
225 270 111 594 245 720 297 127 52 238 102 247 110 43 39 37 110 -13 142 -28
17 -280 107 -1244 446 -82 29 -181 64 -220 78 -38 13 -187 66 -330 117 -143
50 -291 103 -330 117 -79 28 -138 35 -175 21z m240 -667 c165 -37 252 -109
236 -196 -11 -56 -86 -117 -171 -140 -116 -31 -147 -34 -285 -31 -80 2 -156 6
-169 9 -100 25 -183 67 -211 108 -25 34 -30 92 -11 127 30 57 157 115 283 131
81 10 270 5 328 -8z"/>
<path d="M213 3884 c-15 -24 -17 -117 -16 -1287 0 -1015 2 -1270 13 -1301 15
-47 78 -112 140 -144 164 -87 256 -136 265 -142 6 -4 69 -38 140 -75 72 -37
135 -71 140 -75 6 -4 60 -33 120 -65 61 -32 137 -72 170 -90 65 -35 147 -80
265 -143 41 -22 165 -88 275 -147 110 -59 247 -132 305 -163 58 -30 110 -58
115 -62 6 -4 69 -38 140 -75 72 -37 135 -71 140 -75 6 -4 27 -10 48 -13 32 -5
43 -2 63 18 l24 24 -2 1408 -3 1408 -32 47 c-18 25 -47 55 -65 66 -18 11 -148
68 -288 127 -140 58 -268 112 -285 120 -33 14 -185 78 -315 132 -47 19 -98 41
-115 48 -23 10 -647 273 -820 345 -75 32 -95 40 -180 75 -49 21 -104 44 -122
51 -52 23 -100 18 -120 -12z m1760 -945 c62 -15 159 -86 215 -156 181 -225
178 -522 -6 -605 -108 -49 -235 -6 -351 117 -104 111 -163 262 -157 400 8 185
133 287 299 244z m-651 -509 c169 -63 309 -288 309 -495 -1 -240 -197 -336
-393 -191 -71 52 -121 115 -168 211 -145 298 -1 570 252 475z m-609 -487 c148
-81 256 -267 263 -453 6 -171 -71 -273 -203 -272 -223 2 -435 344 -373 601 10
43 23 65 60 102 26 26 58 50 71 52 49 11 132 -4 182 -30z"/>
<path d="M4970 3891 c-25 -10 -160 -67 -300 -126 -140 -59 -280 -118 -310
-130 -30 -12 -354 -148 -720 -302 -366 -154 -687 -288 -713 -299 -66 -26 -121
-75 -148 -131 l-22 -46 -1 -1395 0 -1395 28 -23 c36 -32 86 -23 181 35 17 9
80 44 140 76 61 32 144 76 185 98 41 22 93 50 115 62 22 12 76 42 120 65 231
122 276 146 338 182 38 21 70 38 73 38 2 0 54 28 116 61 164 89 222 120 323
174 50 26 117 62 150 80 33 18 95 51 138 74 360 192 361 193 395 230 61 67 57
-36 60 1368 2 1274 2 1283 -18 1303 -25 25 -70 25 -130 1z m-1197 -1176 c112
-46 164 -202 123 -365 -69 -274 -322 -469 -494 -381 -177 91 -167 406 20 615
111 124 246 175 351 131z m768 -570 c33 -8 85 -58 112 -109 30 -59 30 -195 0
-291 -88 -276 -349 -439 -495 -310 -117 102 -104 350 28 540 33 48 117 123
160 145 75 37 116 42 195 25z"/>
</g>
</svg>
